<svg width="55" height="56" viewBox="0 0 55 56" fill="none" xmlns="http://www.w3.org/2000/svg">
<path d="M53.12 17.5826H51.49C51.5057 17.4003 51.4712 17.2173 51.39 17.0533C51.3089 16.8893 51.1844 16.7507 51.03 16.6526C50.1313 16.2633 49.2095 15.9293 48.27 15.6526V10.3926C48.27 10.1804 48.1857 9.97694 48.0357 9.82691C47.8857 9.67689 47.6822 9.5926 47.47 9.5926C42.1473 9.56036 36.9048 10.8891 32.24 13.4526C30.828 14.2378 29.4893 15.1481 28.24 16.1726C28.058 14.0875 27.5868 12.0379 26.84 10.0826C25.9565 7.53343 24.4175 5.26174 22.3778 3.49585C20.338 1.72995 17.8694 0.532073 15.22 0.0226002C15.1007 -0.00619423 14.9764 -0.00749098 14.8565 0.0188079C14.7366 0.0451069 14.6242 0.0983135 14.5279 0.174408C14.4316 0.250502 14.3538 0.347493 14.3005 0.458053C14.2471 0.568612 14.2196 0.689848 14.22 0.8126V4.5026C12.7963 3.92532 11.3238 3.47686 9.82 3.1626C9.70051 3.13172 9.5755 3.12891 9.45475 3.15438C9.334 3.17985 9.22077 3.23291 9.12393 3.30941C9.02709 3.38592 8.94927 3.48378 8.89654 3.59537C8.84381 3.70695 8.81762 3.82921 8.82 3.9526V15.0226C7.16811 15.4217 5.55507 15.9672 4 16.6526C3.84559 16.7507 3.72106 16.8893 3.63995 17.0533C3.55884 17.2173 3.52427 17.4003 3.54 17.5826H1.88C1.63311 17.5826 1.38865 17.6312 1.16056 17.7257C0.932463 17.8202 0.725213 17.9587 0.550639 18.1332C0.376065 18.3078 0.237585 18.5151 0.143106 18.7432C0.0486276 18.9712 0 19.2157 0 19.4626L0 44.0926C0.0221065 44.2906 0.116435 44.4736 0.264948 44.6064C0.41346 44.7393 0.605734 44.8127 0.805 44.8127C1.00427 44.8127 1.19654 44.7393 1.34505 44.6064C1.49356 44.4736 1.58789 44.2906 1.61 44.0926V19.4626C1.61 19.391 1.63845 19.3223 1.68908 19.2717C1.73972 19.221 1.80839 19.1926 1.88 19.1926H3.51V50.8726C3.51 51.0848 3.59429 51.2883 3.74431 51.4383C3.89434 51.5883 4.09783 51.6726 4.31 51.6726H50.69C50.9022 51.6726 51.1057 51.5883 51.2557 51.4383C51.4057 51.2883 51.49 51.0848 51.49 50.8726V19.1926H53.12C53.1916 19.1926 53.2603 19.221 53.3109 19.2717C53.3616 19.3223 53.39 19.391 53.39 19.4626V53.1326C53.39 53.1681 53.383 53.2032 53.3694 53.2359C53.3559 53.2687 53.336 53.2984 53.3109 53.3235C53.2858 53.3486 53.2561 53.3685 53.2233 53.382C53.1906 53.3956 53.1555 53.4026 53.12 53.4026H29.92C29.6024 53.0845 29.2251 52.8322 28.8099 52.66C28.3946 52.4878 27.9495 52.3992 27.5 52.3992C27.0505 52.3992 26.6054 52.4878 26.1901 52.66C25.7749 52.8322 25.3976 53.0845 25.08 53.4026H1.88C1.84454 53.4026 1.80943 53.3956 1.77668 53.382C1.74392 53.3685 1.71415 53.3486 1.68908 53.3235C1.66401 53.2984 1.64412 53.2687 1.63055 53.2359C1.61698 53.2032 1.61 53.1681 1.61 53.1326V49.0226C1.58789 48.8246 1.49356 48.6416 1.34505 48.5088C1.19654 48.3759 1.00427 48.3025 0.805 48.3025C0.605734 48.3025 0.41346 48.3759 0.264948 48.5088C0.116435 48.6416 0.0221065 48.8246 0 49.0226L0 53.1526C0.00264297 53.6495 0.20188 54.1251 0.554162 54.4755C0.906445 54.8259 1.38312 55.0226 1.88 55.0226H25.45C25.5734 55.0238 25.6953 54.9964 25.8063 54.9426C25.9174 54.8888 26.0144 54.8101 26.09 54.7126C26.2551 54.495 26.4683 54.3186 26.7129 54.1972C26.9575 54.0758 27.2269 54.0126 27.5 54.0126C27.7731 54.0126 28.0425 54.0758 28.2871 54.1972C28.5317 54.3186 28.7449 54.495 28.91 54.7126C28.9856 54.8101 29.0826 54.8888 29.1937 54.9426C29.3047 54.9964 29.4266 55.0238 29.55 55.0226H53.12C53.3677 55.0226 53.613 54.9736 53.8418 54.8785C54.0705 54.7834 54.2782 54.6441 54.4529 54.4684C54.6276 54.2928 54.7659 54.0844 54.8598 53.8551C54.9537 53.6259 55.0013 53.3803 55 53.1326V19.4626C55 19.2157 54.9514 18.9712 54.8569 18.7432C54.7624 18.5151 54.6239 18.3078 54.4494 18.1332C54.2748 17.9587 54.0675 17.8202 53.8394 17.7257C53.6114 17.6312 53.3669 17.5826 53.12 17.5826ZM46.66 11.2126V19.4626C46.6821 19.6606 46.7764 19.8436 46.9249 19.9764C47.0735 20.1093 47.2657 20.1827 47.465 20.1827C47.6643 20.1827 47.8565 20.1093 48.0051 19.9764C48.1536 19.8436 48.2479 19.6606 48.27 19.4626V17.3226C48.98 17.5626 49.53 17.7726 49.88 17.9126V47.2526C45.2315 45.6893 40.2596 45.3449 35.44 46.2526C39.2247 44.6037 43.3117 43.7624 47.44 43.7826C47.5459 43.7826 47.6508 43.7616 47.7485 43.7208C47.8462 43.6799 47.9348 43.6201 48.0093 43.5448C48.0837 43.4694 48.1424 43.38 48.182 43.2818C48.2216 43.1836 48.2413 43.0785 48.24 42.9726V24.4026C48.2526 24.2894 48.2412 24.1747 48.2066 24.0662C48.1719 23.9576 48.1147 23.8576 48.0387 23.7727C47.9627 23.6878 47.8697 23.6198 47.7656 23.5733C47.6616 23.5268 47.549 23.5027 47.435 23.5027C47.321 23.5027 47.2084 23.5268 47.1044 23.5733C47.0003 23.6198 46.9073 23.6878 46.8313 23.7727C46.7553 23.8576 46.6981 23.9576 46.6634 24.0662C46.6288 24.1747 46.6174 24.2894 46.63 24.4026V42.2026C41.5946 42.2909 36.6562 43.6018 32.24 46.0226C30.8533 46.7865 29.5381 47.6734 28.31 48.6726V18.2526C33.3751 13.7658 39.8936 11.2649 46.66 11.2126ZM15.86 1.8426C18.0355 2.41088 20.0363 3.5093 21.6836 5.03969C23.3309 6.57007 24.5734 8.48475 25.3 10.6126C26.1833 12.9403 26.657 15.4033 26.7 17.8926V42.3626C25.8199 39.9988 24.3701 37.8886 22.4792 36.2192C20.5883 34.5499 18.3147 33.3729 15.86 32.7926V1.8426ZM14.25 6.2526V33.4326C14.2504 33.6176 14.3142 33.7968 14.4306 33.9405C14.547 34.0842 14.7092 34.1838 14.89 34.2226C17.2668 34.6664 19.4831 35.7335 21.3121 37.3148C23.1412 38.8961 24.5174 40.9349 25.3 43.2226C25.7684 44.4535 26.1199 45.7258 26.35 47.0226C25.631 45.9738 24.8461 44.9718 24 44.0226C20.4274 40.0208 15.7228 37.1994 10.51 35.9326V15.6826V4.9626C11.7894 5.29116 13.0401 5.72257 14.25 6.2526ZM5.12 17.9126C6.34539 17.4271 7.60145 17.0229 8.88 16.7026V36.5626C8.87898 36.7468 8.94239 36.9256 9.05926 37.0681C9.17613 37.2105 9.33911 37.3076 9.52 37.3426C14.6284 38.4465 19.2581 41.1341 22.75 45.0226C23.651 46.0093 24.4767 47.0623 25.22 48.1726C24.0388 47.5969 22.8111 47.1219 21.55 46.7526C16.1486 45.2653 10.4253 45.4325 5.12 47.2326V17.9126ZM5.12 48.9126C10.2257 47.0888 15.7676 46.8724 21 48.2926C22.5004 48.7053 23.9495 49.2856 25.32 50.0226H5.12V48.9126ZM29.68 50.0226C31.0197 49.2893 32.4345 48.7026 33.9 48.2726C39.1713 46.827 44.761 47.0506 49.9 48.9126V50.0226H29.68Z" fill="white"/>
</svg>
