<svg width="56" height="55" viewBox="0 0 56 55" fill="none" xmlns="http://www.w3.org/2000/svg">
<path d="M35.9099 38.5692C35.4976 38.1568 35.0081 37.8296 34.4693 37.6064C33.9305 37.3832 33.3531 37.2683 32.7699 37.2683C32.1867 37.2683 31.6093 37.3832 31.0705 37.6064C30.5317 37.8296 30.0422 38.1568 29.6299 38.5692L26.6999 41.4992C26.5988 41.5993 26.4622 41.6555 26.3199 41.6555C26.1776 41.6555 26.041 41.5993 25.9399 41.4992L14.4999 30.0692C14.3991 29.9664 14.3427 29.8282 14.3427 29.6842C14.3427 29.5402 14.3991 29.402 14.4999 29.2992L17.4299 26.3692C17.842 25.9577 18.169 25.4691 18.392 24.9311C18.6151 24.3932 18.7299 23.8166 18.7299 23.2342C18.7299 22.6518 18.6151 22.0752 18.392 21.5373C18.169 20.9993 17.842 20.5107 17.4299 20.0992L12.5099 15.1792C11.6776 14.3493 10.5502 13.8833 9.37489 13.8833C8.19956 13.8833 7.07218 14.3493 6.23989 15.1792L5.23989 16.1792C2.52065 18.9033 0.993408 22.5951 0.993408 26.4442C0.993408 30.2933 2.52065 33.9851 5.23989 36.7092L19.2399 50.7092C21.9627 53.4309 25.655 54.9598 29.5049 54.9598C33.3548 54.9598 37.047 53.4309 39.7699 50.7092L40.7699 49.7092C41.5998 48.8769 42.0658 47.7495 42.0658 46.5742C42.0658 45.3989 41.5998 44.2715 40.7699 43.4392L35.9099 38.5692ZM7.75989 16.6892C8.1907 16.2617 8.773 16.0219 9.37989 16.0219C9.98679 16.0219 10.5691 16.2617 10.9999 16.6892L15.9199 21.6092C16.3483 22.0396 16.5892 22.6219 16.5899 23.2292C16.591 23.531 16.5314 23.83 16.4146 24.1083C16.2977 24.3866 16.1261 24.6386 15.9099 24.8492L13.7399 27.0192L5.65989 18.9592C5.98989 18.5092 7.75989 16.6892 7.75989 16.6892ZM20.7599 49.1892L6.75989 35.1892C4.91244 33.3385 3.69791 30.9507 3.29016 28.3678C2.88241 25.7848 3.30236 23.139 4.48989 20.8092L12.3799 28.6992C12.1873 29.187 12.1415 29.7204 12.2481 30.2338C12.3547 30.7473 12.6091 31.2184 12.9799 31.5892L24.4199 43.0192C24.7891 43.3892 25.2585 43.6431 25.7702 43.7497C26.2819 43.8563 26.8136 43.8109 27.2999 43.6192L35.1399 51.4592C32.8116 52.6459 30.1675 53.0654 27.5863 52.6577C25.005 52.2499 22.619 51.0358 20.7699 49.1892H20.7599ZM39.2499 48.1892C39.2499 48.1892 37.4399 49.9592 36.9899 50.2892L28.9899 42.2892L31.1599 40.1192C31.5907 39.6917 32.173 39.4519 32.7799 39.4519C33.3868 39.4519 33.9691 39.6917 34.3999 40.1192L39.2599 44.9592C39.4725 45.171 39.6411 45.4227 39.7562 45.6999C39.8713 45.977 39.9305 46.2741 39.9305 46.5742C39.9305 46.8743 39.8713 47.1714 39.7562 47.4485C39.6411 47.7257 39.4725 47.9774 39.2599 48.1892H39.2499Z" fill="white"/>
<path d="M53.8998 9.24908C53.8442 9.10785 53.7595 8.97994 53.6511 8.87367C53.5428 8.7674 53.4132 8.68516 53.2709 8.63232C53.1287 8.57948 52.9768 8.55722 52.8254 8.56699C52.6739 8.57676 52.5262 8.61835 52.3919 8.68903C52.2576 8.75972 52.1397 8.85793 52.0459 8.97724C51.9521 9.09656 51.8845 9.2343 51.8475 9.3815C51.8105 9.5287 51.8049 9.68204 51.8312 9.83152C51.8574 9.98101 51.9149 10.1233 51.9998 10.2491C53.7572 13.5072 54.2847 17.2885 53.486 20.9032C52.6873 24.5179 50.6158 27.7249 47.6492 29.9393C44.6827 32.1536 41.0189 33.2277 37.3263 32.9654C33.6338 32.7032 30.1586 31.1221 27.5347 28.5108C24.9109 25.8994 23.3134 22.4318 23.0336 18.7405C22.7537 15.0492 23.8103 11.3804 26.0105 8.40333C28.2107 5.42628 31.4079 3.33946 35.0187 2.5236C38.6296 1.70773 42.4134 2.21721 45.6798 3.95908C45.9291 4.0783 46.2148 4.09649 46.4771 4.00985C46.7395 3.92321 46.9581 3.73844 47.0873 3.49424C47.2165 3.25003 47.2463 2.9653 47.1703 2.69967C47.0944 2.43403 46.9186 2.20806 46.6798 2.06908C42.965 0.0860127 38.6613 -0.49608 34.5531 0.42891C30.445 1.3539 26.806 3.72437 24.2996 7.10821C21.7932 10.492 20.5863 14.6639 20.8988 18.8633C21.2113 23.0626 23.0225 27.0099 26.0022 29.9854C28.9819 32.961 32.9316 34.7667 37.1314 35.0734C41.3312 35.3801 45.5014 34.1674 48.8818 31.6563C52.2621 29.1452 54.6275 25.5029 55.5468 21.3935C56.4661 17.2841 55.878 12.9811 53.8898 9.26908L53.8998 9.24908Z" fill="white"/>
<path d="M25.48 17.579C25.48 20.1284 26.236 22.6205 27.6523 24.7403C29.0687 26.86 31.0819 28.5122 33.4372 29.4878C35.7925 30.4634 38.3843 30.7187 40.8847 30.2213C43.3851 29.7239 45.6819 28.4963 47.4846 26.6936C49.2873 24.8909 50.5149 22.5941 51.0123 20.0937C51.5097 17.5933 51.2544 15.0015 50.2788 12.6462C49.3032 10.2908 47.651 8.27769 45.5313 6.86132C43.4115 5.44495 40.9194 4.68896 38.37 4.68896C34.9522 4.69161 31.6751 6.05051 29.2583 8.46728C26.8415 10.8841 25.4826 14.1611 25.48 17.579ZM49.06 16.499H47.5C47.3501 16.4845 47.1988 16.5015 47.0559 16.549C46.913 16.5964 46.7816 16.6732 46.6701 16.7744C46.5587 16.8757 46.4696 16.9991 46.4086 17.1368C46.3477 17.2745 46.3162 17.4234 46.3162 17.574C46.3162 17.7245 46.3477 17.8735 46.4086 18.0112C46.4696 18.1488 46.5587 18.2723 46.6701 18.3735C46.7816 18.4747 46.913 18.5515 47.0559 18.599C47.1988 18.6464 47.3501 18.6634 47.5 18.649H49.06C48.8078 21.1134 47.713 23.4153 45.9604 25.1661C44.2078 26.9169 41.9047 28.0094 39.44 28.259V26.709C39.4545 26.5591 39.4374 26.4078 39.39 26.2649C39.3425 26.122 39.2657 25.9906 39.1645 25.8791C39.0633 25.7676 38.9399 25.6786 38.8022 25.6176C38.6645 25.5567 38.5156 25.5252 38.365 25.5252C38.2144 25.5252 38.0655 25.5567 37.9278 25.6176C37.7901 25.6786 37.6667 25.7676 37.5654 25.8791C37.4642 25.9906 37.3874 26.122 37.34 26.2649C37.2925 26.4078 37.2755 26.5591 37.29 26.709V28.259C34.8271 28.0072 32.5263 26.9138 30.7757 25.1632C29.0251 23.4126 27.9317 21.1119 27.68 18.649H29.24C29.5072 18.6232 29.7552 18.4988 29.9357 18.3C30.1162 18.1013 30.2162 17.8424 30.2162 17.574C30.2162 17.3055 30.1162 17.0467 29.9357 16.8479C29.7552 16.6492 29.5072 16.5248 29.24 16.499H27.68C27.9317 14.0361 29.0251 11.7353 30.7757 9.98471C32.5263 8.2341 34.8271 7.14073 37.29 6.88896V8.44896C37.3158 8.71618 37.4402 8.96422 37.6389 9.1447C37.8377 9.32517 38.0965 9.42516 38.365 9.42516C38.6334 9.42516 38.8923 9.32517 39.091 9.1447C39.2898 8.96422 39.4142 8.71618 39.44 8.44896V6.88896C41.9047 7.13856 44.2078 8.23098 45.9604 9.98179C47.713 11.7326 48.8078 14.0345 49.06 16.499Z" fill="white"/>
<path d="M38.3699 16.0589L36.4999 14.1889C36.2983 13.9887 36.0254 13.8767 35.7413 13.8777C35.4572 13.8786 35.1851 13.9924 34.9849 14.1939C34.7846 14.3955 34.6727 14.6684 34.6736 14.9525C34.6745 15.2366 34.7883 15.5087 34.9899 15.7089L37.6199 18.3389C37.8237 18.5365 38.096 18.6475 38.3799 18.6489C38.6633 18.6455 38.9349 18.5347 39.1399 18.3389L43.8899 13.5789C44.0914 13.3774 44.2047 13.104 44.2047 12.8189C44.2047 12.5339 44.0914 12.2605 43.8899 12.0589C43.6883 11.8574 43.4149 11.7441 43.1299 11.7441C42.8448 11.7441 42.5714 11.8574 42.3699 12.0589L38.3699 16.0589Z" fill="white"/>
<path d="M50.0598 6.95908C50.2006 6.95998 50.3403 6.93305 50.4707 6.87985C50.6011 6.82666 50.7198 6.74823 50.8198 6.64908C50.9214 6.5503 51.0022 6.43214 51.0573 6.3016C51.1125 6.17106 51.1409 6.03079 51.1409 5.88908C51.1409 5.74737 51.1125 5.6071 51.0573 5.47656C51.0022 5.34602 50.9214 5.22787 50.8198 5.12908C50.7206 5.02812 50.6023 4.94786 50.4719 4.89293C50.3414 4.838 50.2013 4.8095 50.0598 4.80908C49.7748 4.8142 49.5026 4.92878 49.2998 5.12908C49.1049 5.33461 48.9942 5.60585 48.9898 5.88908C48.9885 6.02997 49.0152 6.16971 49.0685 6.30013C49.1218 6.43055 49.2006 6.54904 49.3002 6.64866C49.3998 6.74829 49.5183 6.82705 49.6487 6.88035C49.7792 6.93365 49.9189 6.96042 50.0598 6.95908Z" fill="white"/>
</svg>
