<svg width="56" height="54" viewBox="0 0 56 54" fill="none" xmlns="http://www.w3.org/2000/svg">
<path d="M38.88 28.0851C38.7756 27.8602 38.5949 27.6795 38.37 27.5751C38.2421 27.5145 38.1035 27.4799 37.9621 27.4733C37.8207 27.4667 37.6795 27.4882 37.5465 27.5366C37.4135 27.585 37.2914 27.6592 37.1873 27.7551C37.0832 27.851 36.9991 27.9665 36.94 28.0951L30.38 42.1651C30.3195 42.293 30.2849 42.4316 30.2783 42.573C30.2717 42.7144 30.2932 42.8556 30.3415 42.9886C30.3899 43.1216 30.4641 43.2437 30.56 43.3478C30.6559 43.4519 30.7714 43.536 30.9 43.5951C31.0402 43.663 31.1943 43.6973 31.35 43.6951C31.559 43.7008 31.7652 43.6451 31.9429 43.5349C32.1206 43.4247 32.2621 43.2648 32.35 43.0751L34.35 38.6751H41.43L43.43 43.0751C43.5179 43.2648 43.6594 43.4247 43.8372 43.5349C44.0149 43.6451 44.221 43.7008 44.43 43.6951C44.5858 43.6973 44.7398 43.663 44.88 43.5951C45.0086 43.536 45.1242 43.4519 45.22 43.3478C45.3159 43.2437 45.3902 43.1216 45.4385 42.9886C45.4869 42.8556 45.5084 42.7144 45.5018 42.573C45.4952 42.4316 45.4606 42.293 45.4 42.1651L38.88 28.0851ZM35.36 36.5251L37.9 31.0751L40.44 36.5251H35.36Z" fill="white"/>
<path d="M55.95 52.315L53.04 43.115C54.5559 40.0507 55.1168 36.6018 54.65 33.215C54.0305 28.8382 51.7178 24.8793 48.2095 22.1901C44.7012 19.5009 40.2775 18.2961 35.89 18.835C36.2949 15.4928 35.6852 12.1061 34.14 9.11499C34.0074 8.86171 33.7796 8.67148 33.5067 8.58615C33.2338 8.50082 32.9383 8.52738 32.685 8.65999C32.4317 8.7926 32.2415 9.02039 32.1561 9.29326C32.0708 9.56612 32.0974 9.86171 32.23 10.115C33.6638 12.8857 34.177 16.0413 33.6951 19.1236C33.2131 22.2059 31.7611 25.0542 29.55 27.255C27.3092 29.4757 24.4182 30.9235 21.2977 31.3875C18.1771 31.8515 14.99 31.3076 12.2 29.835C12.072 29.7671 11.9315 29.7258 11.7872 29.7138C11.6428 29.7018 11.4974 29.7192 11.36 29.765L3.77996 32.205L6.21997 24.625C6.26578 24.4875 6.2832 24.3422 6.27117 24.1978C6.25914 24.0534 6.2179 23.913 6.14997 23.785C4.68574 21.0164 4.14208 17.8532 4.5979 14.7546C5.05373 11.656 6.48533 8.78342 8.68483 6.55381C10.8843 4.32421 13.7372 2.8537 16.8293 2.3558C19.9214 1.8579 23.0917 2.35852 25.88 3.78499C26.1286 3.90411 26.4139 3.92166 26.6753 3.83391C26.9367 3.74616 27.1536 3.56002 27.28 3.31499C27.4101 3.06149 27.4347 2.76685 27.3486 2.49526C27.2624 2.22366 27.0724 1.99712 26.82 1.86499C24.4284 0.636961 21.7782 -0.00241895 19.0897 6.87701e-06C16.4013 0.0024327 13.7522 0.646594 11.3629 1.87894C8.9735 3.11128 6.91283 4.89619 5.35217 7.08528C3.79151 9.27437 2.77596 11.8044 2.38997 14.465C1.9353 17.859 2.51011 21.3114 4.03997 24.375L1.03997 33.525C0.980703 33.714 0.974541 33.9156 1.02216 34.1078C1.06978 34.3001 1.16934 34.4755 1.30996 34.615C1.40849 34.7134 1.52544 34.7914 1.65413 34.8446C1.78281 34.8978 1.92072 34.9251 2.05996 34.925C2.16938 34.941 2.28055 34.941 2.38997 34.925L11.55 31.925C14.5176 33.3977 17.8508 33.9712 21.14 33.575C20.7817 36.5988 21.248 39.6632 22.4895 42.4436C23.731 45.224 25.7015 47.6168 28.1922 49.3685C30.6829 51.1201 33.601 52.1655 36.6374 52.3937C39.6738 52.622 42.7154 52.0246 45.44 50.665L54.59 53.665C54.6994 53.6802 54.8105 53.6802 54.92 53.665C55.0615 53.6646 55.2016 53.6361 55.332 53.5811C55.4625 53.5262 55.5807 53.4459 55.68 53.345C55.8093 53.2107 55.902 53.0455 55.9493 52.8652C55.9966 52.6849 55.9968 52.4954 55.95 52.315ZM45.68 48.535C45.5418 48.4907 45.3961 48.4749 45.2517 48.4887C45.1073 48.5024 44.9673 48.5454 44.84 48.615C42.4134 49.9089 39.673 50.4976 36.9291 50.3146C34.1852 50.1316 31.5473 49.1841 29.3141 47.5794C27.0808 45.9747 25.3414 43.7769 24.2926 41.2347C23.2439 38.6925 22.9277 35.9076 23.38 33.195C26.2694 32.4218 28.9023 30.8965 31.0102 28.7745C33.1182 26.6524 34.626 24.0095 35.38 21.115C37.6983 20.7156 40.0787 20.8796 42.3203 21.5932C44.562 22.3067 46.5991 23.5489 48.26 25.215C50.4807 27.4558 51.9284 30.3468 52.3925 33.4673C52.8565 36.5878 52.3126 39.775 50.84 42.565C50.7704 42.6923 50.7274 42.8324 50.7137 42.9768C50.6999 43.1212 50.7157 43.2669 50.76 43.405L53.21 50.985L45.68 48.535Z" fill="white"/>
<path d="M26.73 16.1051C26.7299 14.2198 26.0917 12.3901 24.9194 10.9136C23.7471 9.43717 22.1096 8.40088 20.2735 7.97338C18.4373 7.54587 16.5105 7.75233 14.8066 8.55914C13.1027 9.36596 11.722 10.7256 10.8891 12.417C10.0562 14.1083 9.82018 16.0317 10.2194 17.8742C10.6187 19.7167 11.6297 21.3699 13.088 22.5647C14.5463 23.7596 16.366 24.4257 18.2511 24.4549C20.1361 24.484 21.9755 23.8743 23.47 22.7251L26.2 25.4551C26.3001 25.5543 26.4187 25.6327 26.5491 25.6859C26.6796 25.7391 26.8192 25.766 26.96 25.7651C27.101 25.7666 27.2408 25.7399 27.3713 25.6867C27.5018 25.6334 27.6203 25.5547 27.72 25.4551C27.8204 25.3556 27.9001 25.2372 27.9545 25.1068C28.0089 24.9764 28.0368 24.8364 28.0368 24.6951C28.0368 24.5538 28.0089 24.4139 27.9545 24.2834C27.9001 24.153 27.8204 24.0346 27.72 23.9351L25.04 21.2051C26.1526 19.7391 26.747 17.9453 26.73 16.1051ZM23.46 19.6651L20.93 17.1451C20.8302 17.0453 20.7117 16.9661 20.5813 16.9121C20.4509 16.8581 20.3112 16.8303 20.17 16.8303C20.0289 16.8303 19.8891 16.8581 19.7587 16.9121C19.6283 16.9661 19.5098 17.0453 19.41 17.1451C19.3102 17.2449 19.2311 17.3634 19.177 17.4938C19.123 17.6242 19.0952 17.764 19.0952 17.9051C19.0952 18.0463 19.123 18.186 19.177 18.3164C19.2311 18.4468 19.3102 18.5653 19.41 18.6651L21.94 21.1851C20.6641 22.0807 19.0987 22.4654 17.5529 22.2633C16.0072 22.0611 14.5934 21.2868 13.5907 20.0932C12.5879 18.8996 12.0691 17.3734 12.1367 15.8159C12.2042 14.2585 12.8532 12.7829 13.9555 11.6806C15.0579 10.5783 16.5334 9.92929 18.0909 9.86174C19.6483 9.79419 21.1745 10.313 22.3681 11.3157C23.5617 12.3185 24.3361 13.7323 24.5382 15.278C24.7404 16.8238 24.3557 18.3891 23.46 19.6651Z" fill="white"/>
<path d="M30.2801 6.56516C30.4906 6.56185 30.6956 6.49708 30.8698 6.37882C31.0439 6.26055 31.1798 6.09396 31.2605 5.89952C31.3413 5.70508 31.3634 5.49127 31.3243 5.28441C31.2851 5.07754 31.1863 4.88663 31.0401 4.73516C30.9158 4.61197 30.7631 4.52117 30.5955 4.47071C30.4279 4.42026 30.2505 4.41169 30.0788 4.44576C29.9071 4.47983 29.7464 4.5555 29.6107 4.66613C29.4751 4.77676 29.3687 4.91898 29.3008 5.08031C29.2329 5.24165 29.2056 5.41717 29.2214 5.5915C29.2371 5.76582 29.2954 5.93362 29.3911 6.08019C29.4867 6.22676 29.6169 6.34762 29.7702 6.43217C29.9234 6.51672 30.0951 6.56239 30.2701 6.56516H30.2801Z" fill="white"/>
</svg>
