<svg width="1117" height="189" viewBox="0 0 1117 189" fill="none" xmlns="http://www.w3.org/2000/svg">
<path d="M130.01 60.6255C128.28 55.1966 125.953 50.3343 123.03 46.0389C120.166 41.6838 116.736 37.9849 112.738 34.9423C108.741 31.84 104.177 29.4835 99.0467 27.8727C93.9757 26.2619 88.3976 25.4565 82.3123 25.4565C71.9913 25.4565 62.6845 28.1113 54.3919 33.421C46.0993 38.7307 39.5368 46.5162 34.7044 56.7775C29.9316 66.9792 27.5453 79.4778 27.5453 94.2733C27.5453 109.128 29.9615 121.687 34.7939 131.948C39.6262 142.209 46.2484 149.995 54.6603 155.305C63.0723 160.614 72.6475 163.269 83.3862 163.269C93.3493 163.269 102.03 161.241 109.427 157.184C116.885 153.127 122.642 147.4 126.699 140.002C130.815 132.545 132.873 123.775 132.873 113.692L140.033 115.035H87.5922V92.215H159.631V113.066C159.631 128.458 156.349 141.822 149.787 153.157C143.284 164.432 134.275 173.143 122.761 179.287C111.307 185.432 98.1816 188.505 83.3862 188.505C66.801 188.505 52.2441 184.687 39.7157 177.05C27.247 169.414 17.5225 158.586 10.5424 144.566C3.56232 130.486 0.0722656 113.782 0.0722656 94.4522C0.0722656 79.8358 2.10067 66.7108 6.15749 55.0772C10.2143 43.4437 15.9118 33.5701 23.2498 25.4565C30.6476 17.2832 39.3279 11.0488 49.291 6.75338C59.3137 2.39826 70.2612 0.220703 82.1333 0.220703C92.0368 0.220703 101.254 1.68235 109.785 4.60565C118.376 7.52894 126.013 11.6752 132.694 17.0446C139.436 22.4139 145.014 28.7974 149.429 36.1951C153.844 43.5332 156.827 51.6767 158.378 60.6255H130.01Z" fill="#131313"/>
<path d="M206.554 185.999H177.202L243.155 2.72639H275.102L341.055 185.999H311.703L259.889 36.0162H258.457L206.554 185.999ZM211.476 114.229H306.692V137.496H211.476V114.229Z" fill="#131313"/>
<path d="M369.521 185.999V2.72639H397.173V162.195H480.219V185.999H369.521Z" fill="#131313"/>
<path d="M513.764 185.999V2.72639H541.416V162.195H624.461V185.999H513.764Z" fill="#131313"/>
<path d="M658.006 185.999V2.72639H772.909V26.5304H685.658V82.3713H766.914V106.086H685.658V162.195H773.983V185.999H658.006Z" fill="#131313"/>
<path d="M811.846 185.999V2.72639H877.172C891.371 2.72639 903.154 5.17241 912.52 10.0645C921.947 14.9565 928.986 21.7278 933.64 30.3784C938.293 38.9693 940.62 48.9025 940.62 60.1781C940.62 71.394 938.263 81.2676 933.55 89.7988C928.897 98.2704 921.857 104.863 912.431 109.576C903.064 114.289 891.282 116.645 877.083 116.645H827.596V92.8414H874.577C883.526 92.8414 890.805 91.5588 896.412 88.9934C902.08 86.4281 906.226 82.6994 908.851 77.8074C911.476 72.9153 912.789 67.0389 912.789 60.1781C912.789 53.2576 911.447 47.2619 908.762 42.1909C906.137 37.1198 901.991 33.242 896.323 30.5574C890.715 27.813 883.347 26.4409 874.219 26.4409H839.498V185.999H811.846ZM902.319 103.312L947.6 185.999H916.1L871.714 103.312H902.319Z" fill="#131313"/>
<path d="M955.484 2.72639H986.894L1034.77 86.0403H1036.74L1084.62 2.72639H1116.03L1049.54 114.05V185.999H1021.97V114.05L955.484 2.72639Z" fill="#131313"/>
</svg>
