<svg width="1119" height="191" viewBox="0 0 1119 191" fill="none" xmlns="http://www.w3.org/2000/svg">
<g opacity="0.5">
<mask id="path-1-outside-1_1408_3919" maskUnits="userSpaceOnUse" x="0.0722656" y="0.220703" width="1119" height="191" fill="black">
<rect fill="white" x="0.0722656" y="0.220703" width="1119" height="191"/>
<path d="M131.01 61.6255C129.28 56.1966 126.953 51.3343 124.03 47.0389C121.166 42.6838 117.736 38.9849 113.738 35.9423C109.741 32.84 105.177 30.4835 100.047 28.8727C94.9757 27.2619 89.3976 26.4565 83.3123 26.4565C72.9913 26.4565 63.6845 29.1113 55.3919 34.421C47.0993 39.7307 40.5368 47.5162 35.7044 57.7775C30.9316 67.9792 28.5453 80.4778 28.5453 95.2733C28.5453 110.128 30.9615 122.687 35.7939 132.948C40.6262 143.209 47.2484 150.995 55.6603 156.305C64.0723 161.614 73.6475 164.269 84.3862 164.269C94.3493 164.269 103.03 162.241 110.427 158.184C117.885 154.127 123.642 148.4 127.699 141.002C131.815 133.545 133.873 124.775 133.873 114.692L141.033 116.035H88.5922V93.215H160.631V114.066C160.631 129.458 157.349 142.822 150.787 154.157C144.284 165.432 135.275 174.143 123.761 180.287C112.307 186.432 99.1816 189.505 84.3862 189.505C67.801 189.505 53.2441 185.687 40.7157 178.05C28.247 170.414 18.5225 159.586 11.5424 145.566C4.56232 131.486 1.07227 114.782 1.07227 95.4522C1.07227 80.8358 3.10067 67.7108 7.15749 56.0772C11.2143 44.4437 16.9118 34.5701 24.2498 26.4565C31.6476 18.2832 40.3279 12.0488 50.291 7.75338C60.3137 3.39826 71.2612 1.2207 83.1333 1.2207C93.0368 1.2207 102.254 2.68235 110.785 5.60565C119.376 8.52894 127.013 12.6752 133.694 18.0446C140.436 23.4139 146.014 29.7974 150.429 37.1951C154.844 44.5332 157.827 52.6767 159.378 61.6255H131.01ZM207.554 186.999H178.202L244.155 3.72639H276.102L342.055 186.999H312.703L260.889 37.0162H259.457L207.554 186.999ZM212.476 115.229H307.692V138.496H212.476V115.229ZM370.521 186.999V3.72639H398.173V163.195H481.219V186.999H370.521ZM514.764 186.999V3.72639H542.416V163.195H625.461V186.999H514.764ZM659.006 186.999V3.72639H773.909V27.5304H686.658V83.3713H767.914V107.086H686.658V163.195H774.983V186.999H659.006ZM812.846 186.999V3.72639H878.172C892.371 3.72639 904.154 6.17241 913.52 11.0645C922.947 15.9565 929.986 22.7278 934.64 31.3784C939.293 39.9693 941.62 49.9025 941.62 61.1781C941.62 72.394 939.263 82.2676 934.55 90.7988C929.897 99.2704 922.857 105.863 913.431 110.576C904.064 115.289 892.282 117.645 878.083 117.645H828.596V93.8414H875.577C884.526 93.8414 891.805 92.5588 897.412 89.9934C903.08 87.4281 907.226 83.6994 909.851 78.8074C912.476 73.9153 913.789 68.0389 913.789 61.1781C913.789 54.2576 912.447 48.2619 909.762 43.1909C907.137 38.1198 902.991 34.242 897.323 31.5574C891.715 28.813 884.347 27.4409 875.219 27.4409H840.498V186.999H812.846ZM903.319 104.312L948.6 186.999H917.1L872.714 104.312H903.319ZM956.484 3.72639H987.894L1035.77 87.0403H1037.74L1085.62 3.72639H1117.03L1050.54 115.05V186.999H1022.97V115.05L956.484 3.72639Z"/>
</mask>
<path d="M131.01 61.6255C129.28 56.1966 126.953 51.3343 124.03 47.0389C121.166 42.6838 117.736 38.9849 113.738 35.9423C109.741 32.84 105.177 30.4835 100.047 28.8727C94.9757 27.2619 89.3976 26.4565 83.3123 26.4565C72.9913 26.4565 63.6845 29.1113 55.3919 34.421C47.0993 39.7307 40.5368 47.5162 35.7044 57.7775C30.9316 67.9792 28.5453 80.4778 28.5453 95.2733C28.5453 110.128 30.9615 122.687 35.7939 132.948C40.6262 143.209 47.2484 150.995 55.6603 156.305C64.0723 161.614 73.6475 164.269 84.3862 164.269C94.3493 164.269 103.03 162.241 110.427 158.184C117.885 154.127 123.642 148.4 127.699 141.002C131.815 133.545 133.873 124.775 133.873 114.692L141.033 116.035H88.5922V93.215H160.631V114.066C160.631 129.458 157.349 142.822 150.787 154.157C144.284 165.432 135.275 174.143 123.761 180.287C112.307 186.432 99.1816 189.505 84.3862 189.505C67.801 189.505 53.2441 185.687 40.7157 178.05C28.247 170.414 18.5225 159.586 11.5424 145.566C4.56232 131.486 1.07227 114.782 1.07227 95.4522C1.07227 80.8358 3.10067 67.7108 7.15749 56.0772C11.2143 44.4437 16.9118 34.5701 24.2498 26.4565C31.6476 18.2832 40.3279 12.0488 50.291 7.75338C60.3137 3.39826 71.2612 1.2207 83.1333 1.2207C93.0368 1.2207 102.254 2.68235 110.785 5.60565C119.376 8.52894 127.013 12.6752 133.694 18.0446C140.436 23.4139 146.014 29.7974 150.429 37.1951C154.844 44.5332 157.827 52.6767 159.378 61.6255H131.01ZM207.554 186.999H178.202L244.155 3.72639H276.102L342.055 186.999H312.703L260.889 37.0162H259.457L207.554 186.999ZM212.476 115.229H307.692V138.496H212.476V115.229ZM370.521 186.999V3.72639H398.173V163.195H481.219V186.999H370.521ZM514.764 186.999V3.72639H542.416V163.195H625.461V186.999H514.764ZM659.006 186.999V3.72639H773.909V27.5304H686.658V83.3713H767.914V107.086H686.658V163.195H774.983V186.999H659.006ZM812.846 186.999V3.72639H878.172C892.371 3.72639 904.154 6.17241 913.52 11.0645C922.947 15.9565 929.986 22.7278 934.64 31.3784C939.293 39.9693 941.62 49.9025 941.62 61.1781C941.62 72.394 939.263 82.2676 934.55 90.7988C929.897 99.2704 922.857 105.863 913.431 110.576C904.064 115.289 892.282 117.645 878.083 117.645H828.596V93.8414H875.577C884.526 93.8414 891.805 92.5588 897.412 89.9934C903.08 87.4281 907.226 83.6994 909.851 78.8074C912.476 73.9153 913.789 68.0389 913.789 61.1781C913.789 54.2576 912.447 48.2619 909.762 43.1909C907.137 38.1198 902.991 34.242 897.323 31.5574C891.715 28.813 884.347 27.4409 875.219 27.4409H840.498V186.999H812.846ZM903.319 104.312L948.6 186.999H917.1L872.714 104.312H903.319ZM956.484 3.72639H987.894L1035.77 87.0403H1037.74L1085.62 3.72639H1117.03L1050.54 115.05V186.999H1022.97V115.05L956.484 3.72639Z" stroke="black" stroke-width="2" mask="url(#path-1-outside-1_1408_3919)"/>
</g>
</svg>
