<svg width="44" height="39" viewBox="0 0 44 39" fill="none" xmlns="http://www.w3.org/2000/svg">
<path d="M43.3425 28.9416C43.6938 28.9416 43.9786 28.657 43.9786 28.3055V27.0752C43.9786 25.8316 43.0289 24.8198 41.8618 24.8198H40.8323V23.5163C40.8323 22.6043 40.0902 21.8623 39.1782 21.8623H34.0578C33.1457 21.8623 32.4038 22.6044 32.4038 23.5163V26.9108C27.8297 26.3772 22.1359 26.3763 17.554 26.9108V23.5163C17.554 22.6043 16.8119 21.8623 15.9 21.8623H15.4954C18.9827 19.7388 22.8827 16.8591 25.9235 14.0546L27.9203 16.7997C28.4575 17.5384 29.4947 17.6998 30.2309 17.1644L34.3718 14.1525C35.1093 13.6162 35.2729 12.5795 34.7364 11.8419L33.9696 10.7877L34.8022 10.1823C35.7462 9.49555 35.9189 8.11883 35.1874 7.11305L31.7345 2.36594C31.0029 1.36034 29.6399 1.10054 28.696 1.78713L27.8633 2.39281L27.0966 1.33879C26.5602 0.601055 25.5237 0.43761 24.786 0.973993L20.6451 3.98586C19.9076 4.52227 19.744 5.55875 20.2805 6.29641L22.2772 9.04149C18.2631 11.3013 13.6591 14.6491 10.2682 17.7763L8.79949 15.7573C7.97231 14.6202 6.37199 14.3673 5.23499 15.1947L2.54575 17.1506C1.40801 17.9784 1.15567 19.5773 1.98324 20.7152L2.22192 21.0433L1.38943 21.6488C0.426665 22.349 0.287649 23.7328 1.00427 24.718L4.45721 29.465C4.83499 29.9845 5.38871 30.3148 5.97918 30.4027V32.9452C5.97918 34.1889 6.92879 35.2008 8.09598 35.2008H9.12551V36.5042C9.12551 37.4163 9.86754 38.1582 10.7796 38.1582H15.9C16.8121 38.1582 17.554 37.4162 17.554 36.5042V33.1101C19.3619 33.3204 21.3943 33.4527 23.4817 33.4946C23.4861 33.4948 23.4904 33.4948 23.4947 33.4948C23.8401 33.4948 24.1236 33.2183 24.1306 32.8714C24.1377 32.5202 23.8586 32.2297 23.5073 32.2227C21.4025 32.1802 19.3579 32.0448 17.554 31.8291V28.1913C22.0542 27.652 27.8102 27.6408 32.4038 28.1913V31.8291C30.6001 32.0448 28.5554 32.1802 26.4505 32.2227C26.0993 32.2297 25.8201 32.5202 25.8272 32.8713C25.8342 33.2183 26.1175 33.4948 26.463 33.4948C26.4674 33.4948 26.4718 33.4948 26.4761 33.4946C28.5636 33.4527 30.596 33.3204 32.4038 33.1101V36.5042C32.4038 37.4163 33.1458 38.1582 34.0578 38.1582H39.1782C40.0903 38.1582 40.8323 37.4162 40.8323 36.5042V35.2008H41.8618C43.0289 35.2008 43.9786 34.1889 43.9786 32.9452V31.2744C43.9786 30.923 43.6938 30.6382 43.3425 30.6382C42.9911 30.6382 42.7064 30.923 42.7064 31.2744V32.9452C42.7064 33.4782 42.3197 33.9284 41.8619 33.9284H40.8324V26.0922H41.8619C42.3196 26.0922 42.7064 26.5424 42.7064 27.0753V28.3056C42.7062 28.657 42.9911 28.9416 43.3425 28.9416ZM29.4443 2.81602C29.8143 2.54703 30.3921 2.68352 30.7054 3.11445L34.1584 7.86156C34.4718 8.29242 34.4239 8.88414 34.0538 9.15336L33.2212 9.75883C32.7058 9.04992 29.1357 4.1418 28.6118 3.42156L29.4443 2.81602ZM21.3094 5.5482C21.1878 5.38086 21.2263 5.13664 21.3936 5.01492L25.5344 2.00299C25.7025 1.88095 25.9463 1.92038 26.0676 2.08722C26.3251 2.44125 32.2591 10.5993 32.5664 11.0219L33.7074 12.5903C33.8291 12.7577 33.7906 13.0018 33.6232 13.1235L29.4823 16.1355C29.3142 16.2576 29.0725 16.2208 28.9492 16.0513C28.6982 15.7063 21.6123 5.96453 21.3094 5.5482ZM23.0304 10.0773L25.1704 13.0191C21.8607 16.0908 17.2182 19.4865 13.1611 21.7534L11.0216 18.812C14.3224 15.7484 18.9676 12.3473 23.0304 10.0773ZM5.97918 27.0752V29.0946C5.78996 29.0241 5.61504 28.8937 5.48629 28.7166L2.03337 23.9695C1.70555 23.519 1.77883 22.939 2.13795 22.6777L2.97044 22.0723C3.07137 22.2111 3.86162 23.2974 6.08902 26.3598C6.01317 26.6007 5.97918 26.8494 5.97918 27.0752ZM9.12551 33.9284H8.09598C7.63832 33.9284 7.25152 33.4782 7.25152 32.9452C7.25152 32.3705 7.25152 27.6743 7.25152 27.0752C7.25152 26.853 7.32488 26.613 7.4702 26.4245C7.64324 26.1997 7.87723 26.092 8.09598 26.092H9.12543L9.12551 33.9284ZM9.12551 23.5163V24.8197H8.09598C8.04434 24.8197 7.99317 24.8223 7.94238 24.8263C7.9334 24.827 7.92442 24.8277 7.91543 24.8285C7.52152 24.8641 7.15817 25.0151 6.85512 25.2495L3.01225 19.9666C2.59732 19.3962 2.72379 18.5945 3.29419 18.1795L5.9834 16.2236C6.55129 15.8103 7.35715 15.9373 7.77043 16.5056C8.23363 17.1423 11.1711 21.1807 11.6668 21.8621H10.7794C9.86754 21.8621 9.12551 22.6042 9.12551 23.5163ZM16.2818 36.5041C16.2818 36.7109 16.1069 36.8858 15.9 36.8858H10.7796C10.5728 36.8858 10.3979 36.7109 10.3979 36.5041C10.3979 35.9054 10.3979 23.9066 10.3979 23.5163C10.3979 23.3095 10.5728 23.1347 10.7796 23.1347C12.0742 23.1347 12.7889 23.1347 13.1611 23.1347C13.4293 23.1347 13.5203 23.1347 13.5203 23.1347C13.8922 23.1347 14.6065 23.1347 15.9 23.1347C16.1069 23.1347 16.2818 23.3095 16.2818 23.5163C16.2818 24.3035 16.2818 36.0201 16.2818 36.5041ZM39.56 36.5041C39.56 36.7109 39.3852 36.8858 39.1783 36.8858H34.0579C33.851 36.8858 33.6762 36.7109 33.6762 36.5041V23.5163C33.6762 23.3095 33.851 23.1347 34.0579 23.1347H39.1783C39.3852 23.1347 39.56 23.3095 39.56 23.5163C39.56 24.2998 39.56 36.0838 39.56 36.5041Z" fill="#FFA23D"/>
</svg>
