<svg width="50" height="50" viewBox="0 0 50 50" fill="none" xmlns="http://www.w3.org/2000/svg">
<path d="M8.73673 11.0991H11.8175C12.2036 11.0991 12.5165 10.7569 12.5165 10.3348C12.5165 9.91274 12.2036 9.57056 11.8175 9.57056H8.73673C7.59502 9.57056 6.63065 8.582 6.58685 7.36712C6.58545 7.32888 6.5848 7.29097 6.5848 7.25317C6.5848 5.75077 7.70256 4.52849 9.07645 4.52849C9.83281 4.52849 10.5398 4.89849 11.016 5.54361C11.2176 5.8168 11.5633 5.90453 11.8548 5.75637C12.1233 5.61973 12.4102 5.55043 12.7075 5.55043C13.425 5.55043 14.0957 5.97271 14.4578 6.65247C14.5514 6.82835 14.7055 6.95613 14.8857 7.00738C15.0659 7.05864 15.2573 7.02919 15.4175 6.92556C15.6475 6.77679 15.9109 6.69812 16.1792 6.69812C16.9062 6.69812 17.5266 7.26509 17.6546 8.04615C17.7144 8.4104 18.0042 8.67557 18.3426 8.67557H20.6042C20.8421 8.67557 21.0462 8.87651 21.0501 9.11436C21.0521 9.23572 21.0106 9.35012 20.933 9.43658C20.8554 9.52296 20.7517 9.57056 20.6409 9.57056H14.6129C14.2269 9.57056 13.9141 9.91274 13.9141 10.3348C13.9141 10.7569 14.2269 11.0991 14.6129 11.0991H20.6409C21.1299 11.0991 21.5878 10.8889 21.9303 10.5074C22.2729 10.1259 22.4566 9.62133 22.4477 9.08642C22.4299 8.01697 21.603 7.14709 20.6042 7.14709H18.8648C18.4305 5.97087 17.3798 5.16964 16.1792 5.16964C15.8787 5.16964 15.5811 5.22079 15.2975 5.31994C14.6535 4.50658 13.7074 4.02195 12.7075 4.02195C12.3814 4.02195 12.0625 4.07137 11.7547 4.16919C11.0356 3.42044 10.0842 3 9.07645 3C6.93182 3 5.18701 4.90796 5.18701 7.25317C5.18701 7.31077 5.18813 7.36874 5.19018 7.4271C5.26426 9.48619 6.82214 11.0991 8.73673 11.0991Z" fill="#FFA23D"/>
<path d="M48.0121 45.509H47.5572C48.2799 44.5759 48.6213 43.1256 48.6213 41.0287C48.6213 38.4104 48.1021 35.124 47.2664 32.4523C46.5393 30.1278 45.2827 27.3568 43.425 27.3568C42.491 27.3568 41.6246 28.0511 40.8422 29.4223C40.1642 28.2375 39.308 27.3568 38.2607 27.3568C37.1345 27.3568 36.1094 28.3616 35.2099 30.3445C35.0264 30.2727 34.8296 30.2315 34.6237 30.2315H27.6583C27.2723 30.2315 26.9595 30.5737 26.9595 30.9958C26.9595 31.4178 27.2723 31.76 27.6583 31.76H34.6237C34.8162 31.76 34.9728 31.9311 34.9728 32.1416V33.0058C34.9728 33.2162 34.8162 33.3874 34.6237 33.3874H15.0872C14.8948 33.3874 14.7383 33.2162 14.7383 33.0058V32.1416C14.7383 31.9311 14.8948 31.76 15.0872 31.76H24.8628C25.2488 31.76 25.5617 31.4178 25.5617 30.9958C25.5617 30.5737 25.2488 30.2315 24.8628 30.2315H19.0675C19.6023 28.9258 19.8835 27.4975 19.8835 26.0574C19.8835 20.4334 15.6993 15.8579 10.5562 15.8579C5.41308 15.8579 1.22877 20.4334 1.22877 26.0574C1.22877 31.3883 4.98844 35.7764 9.76051 36.2195V40.5723C9.61322 40.5507 9.46399 40.5393 9.31337 40.5393C9.04804 40.5393 8.78727 40.5729 8.53331 40.6396C7.71971 39.4371 6.38976 38.7292 5.00214 38.7999C2.87909 38.9076 1.14695 40.8111 1.05908 43.1339C1.0273 43.9751 1.21423 44.8003 1.57952 45.5211C1.25048 45.5831 1 45.8958 1 46.2732C1 46.6953 1.31282 47.0375 1.69889 47.0375H3.0566H48.0121C48.3982 47.0375 48.711 46.6953 48.711 46.2732C48.711 45.8512 48.3982 45.509 48.0121 45.509ZM15.12 44.3943C15.106 44.1716 15.069 43.9508 15.0127 43.736H17.2444V45.509H15.0148C15.1075 45.1526 15.1441 44.7769 15.12 44.3943ZM30.2895 38.072V39.198H19.7292V38.072H30.2895ZM33.2508 38.072C33.2063 38.4537 33.1693 38.83 33.1407 39.198H31.6872V38.072H33.2508ZM36.1762 40.7265C36.2648 40.7265 36.3369 40.8054 36.3369 40.9023V42.0316C36.3369 42.1286 36.2648 42.2074 36.1762 42.2074H13.5349C13.4462 42.2074 13.374 42.1285 13.374 42.0316V40.9023C13.374 40.8054 13.4462 40.7265 13.5349 40.7265H36.1762ZM18.6423 43.736H31.3763V45.509H18.6423V43.736ZM32.7742 43.736H33.3336C33.5177 44.4961 33.7927 45.0734 34.1314 45.509H32.774L32.7742 43.736ZM41.6345 31.0061C42.24 29.6782 42.9093 28.8853 43.4251 28.8853C44.001 28.8853 45.0062 29.9491 45.9439 32.947C46.7212 35.4321 47.2235 38.6045 47.2235 41.0287C47.2235 45.3374 45.7937 45.3374 43.425 45.3374C43.1338 45.3374 42.8276 45.3369 42.5252 45.3239C43.1568 44.388 43.457 42.9925 43.457 41.0287C43.457 38.4104 42.9379 35.124 42.1021 32.4523C41.959 31.9948 41.7951 31.5202 41.6105 31.0527C41.6187 31.0374 41.627 31.0222 41.6345 31.0061ZM38.2607 28.8854C38.8366 28.8854 39.8418 29.9491 40.7796 32.9471C41.5569 35.4322 42.0592 38.6046 42.0592 41.0288C42.0592 45.3376 40.6294 45.3375 38.2607 45.3375C36.3814 45.3375 35.3084 45.2597 34.7957 43.7361H36.1761C37.0356 43.7361 37.7346 42.9715 37.7346 42.0318V40.9025C37.7346 39.9628 37.0354 39.1982 36.1761 39.1982H34.5441C34.5747 38.8299 34.6135 38.4532 34.6607 38.0702C35.6066 38.0483 36.3704 37.2017 36.3704 36.1621V35.2979C36.3704 34.8678 36.2382 34.4717 36.018 34.1521C36.2383 33.8324 36.3704 33.4364 36.3704 33.0062V32.142C36.3704 31.9073 36.3297 31.6832 36.2585 31.4754C36.2763 31.4451 36.293 31.4137 36.3071 31.3801C36.9606 29.8178 37.6909 28.8854 38.2607 28.8854ZM34.6237 34.916C34.8162 34.916 34.9728 35.0872 34.9728 35.2976V36.1618C34.9728 36.3722 34.8162 36.5434 34.6237 36.5434H15.0872C14.8948 36.5434 14.7383 36.3722 14.7383 36.1618V35.2976C14.7383 35.0872 14.8948 34.916 15.0872 34.916H34.6237ZM2.62665 26.0574C2.62665 21.2762 6.18391 17.3864 10.5563 17.3864C14.9286 17.3864 18.4858 21.2762 18.4858 26.0574C18.4858 27.4925 18.1587 28.9141 17.54 30.1683C17.5298 30.1891 17.5208 30.2102 17.5125 30.2315H15.0873C14.1242 30.2315 13.3406 31.0883 13.3406 32.1416V33.0058C13.3406 33.3949 13.4481 33.7569 13.6316 34.0591C13.6054 34.0671 13.5793 34.0762 13.5535 34.0878C12.7874 34.43 11.9838 34.6341 11.1584 34.7014V28.6803L13.573 26.0398C13.846 25.7413 13.846 25.2574 13.573 24.9591C13.3 24.6606 12.8576 24.6606 12.5846 24.9591L11.1584 26.5186V24.5239C11.1584 24.1018 10.8456 23.7597 10.4595 23.7597C10.0735 23.7597 9.76066 24.1018 9.76066 24.5239V29.1186L8.41618 27.6488C8.14314 27.3503 7.70069 27.3502 7.42776 27.6488C7.15482 27.9473 7.15482 28.4312 7.42776 28.7296L9.76059 31.2807V34.6849C5.76038 34.2469 2.62665 30.5451 2.62665 26.0574ZM11.1584 36.2355C11.9031 36.1838 12.633 36.0361 13.3404 35.7941V36.1618C13.3404 37.2151 14.124 38.0719 15.0872 38.0719H18.3314V39.1979H13.5348C12.6753 39.1979 11.9762 39.9625 11.9762 40.9022V41.3945C11.827 41.4049 11.6793 41.4264 11.5336 41.4617C11.4149 41.3465 11.2894 41.2414 11.1583 41.1464L11.1584 36.2355ZM3.31594 45.509C2.73344 44.9113 2.4222 44.0819 2.45565 43.197C2.51399 41.6588 3.66101 40.3981 5.06699 40.3269C6.14058 40.2732 7.11652 40.8808 7.62103 41.9138C7.79379 42.2675 8.18694 42.4151 8.52204 42.2518C8.77249 42.1298 9.03875 42.0679 9.31352 42.0679C9.88629 42.0679 10.4278 42.3426 10.7992 42.8215C10.9935 43.0722 11.3125 43.1589 11.5916 43.037C11.7881 42.9511 11.9941 42.9112 12.2054 42.9166C12.4736 43.3967 12.9518 43.7208 13.5001 43.734C13.6307 43.9662 13.7089 44.2306 13.7256 44.499C13.7483 44.86 13.6696 45.2093 13.5017 45.509H3.31594Z" fill="#FFA23D"/>
<path d="M27.0008 20.6703H33.991C34.3771 20.6703 34.69 20.3281 34.69 19.9061C34.69 19.484 34.3771 19.1419 33.991 19.1419H27.0008C26.5385 19.1419 26.1599 18.744 26.1568 18.2548C26.1568 18.2526 26.1567 18.2435 26.1567 18.2413C26.1567 17.1891 26.94 16.3153 27.903 16.2935C28.2395 16.286 28.5232 16.0172 28.5781 15.6538C28.863 13.7659 30.3417 12.3955 32.0942 12.3955C33.8554 12.3955 35.3355 13.7735 35.6133 15.6721C35.673 16.0797 36.0183 16.3614 36.3921 16.3093C36.4828 16.2967 36.5556 16.2908 36.6216 16.2908C37.2522 16.2908 37.8423 16.6614 38.1617 17.2579C38.2872 17.492 38.5167 17.6359 38.7648 17.6359H40.6811C41.0607 17.6359 41.3696 17.9737 41.3696 18.3889C41.3696 18.804 41.0608 19.1419 40.6811 19.1419H36.7864C36.4004 19.1419 36.0876 19.484 36.0876 19.9061C36.0876 20.3281 36.4004 20.6703 36.7864 20.6703H40.6811C41.8314 20.6703 42.7674 19.6469 42.7674 18.3889C42.7674 17.1309 41.8314 16.1074 40.6811 16.1074H39.1335C38.5838 15.3361 37.7543 14.8463 36.8593 14.7722C36.2532 12.4736 34.3375 10.8669 32.0942 10.8669C29.835 10.8669 27.9026 12.5032 27.3139 14.8331C25.8626 15.1551 24.7588 16.5723 24.7588 18.2412L24.7589 18.2653C24.7674 19.5914 25.7731 20.6703 27.0008 20.6703Z" fill="#FFA23D"/>
</svg>
