<svg width="45" height="39" viewBox="0 0 45 39" fill="none" xmlns="http://www.w3.org/2000/svg">
<path d="M43.8886 25C42.3093 25 41.4961 25.6577 40.7785 26.2382C40.1242 26.7676 39.6074 27.1856 38.4849 27.1856C37.3623 27.1856 36.8453 26.7675 36.1911 26.2382C35.4736 25.6579 34.6603 25 33.0811 25C32.1728 25 31.4163 25.2189 30.7002 25.6894C30.3919 25.8918 30.3009 26.314 30.497 26.6322C30.6931 26.9505 31.1019 27.0444 31.4103 26.8419C31.7688 26.6066 32.2475 26.366 33.0811 26.366C34.2036 26.366 34.7206 26.7841 35.3748 27.3134C36.0924 27.8938 36.9055 28.5516 38.4849 28.5516C40.0641 28.5516 40.8774 27.8938 41.5949 27.3134C42.2492 26.7841 42.766 26.366 43.8886 26.366C44.254 26.366 44.5503 26.0602 44.5503 25.683C44.5503 25.3059 44.254 25 43.8886 25Z" fill="#FFA23D"/>
<path d="M4.74234 26.9091C4.38787 26.737 4.08838 26.4947 3.7713 26.2383C3.05388 25.6579 2.24084 25 0.661648 25C0.296187 25 0 25.3059 0 25.683C0 26.0602 0.296187 26.366 0.661648 26.366C1.78402 26.366 2.30079 26.7841 2.95495 27.3134C3.31605 27.6055 3.68925 27.9073 4.17913 28.1453C4.27006 28.1895 4.36587 28.2104 4.46027 28.2104C4.70859 28.2104 4.9468 28.0652 5.05945 27.8179C5.21508 27.4764 5.07305 27.0696 4.74234 26.9091Z" fill="#FFA23D"/>
<path d="M33.8159 0.0527344C29.1826 0.0527344 25.4131 3.9437 25.4131 8.7262V15.3514H10.9903V8.7262C10.9903 6.20339 12.9789 4.15089 15.4233 4.15089C17.8672 4.15089 19.8554 6.20339 19.8554 8.7262V8.93112C19.8554 10.0609 20.7458 10.9802 21.8403 10.9802C22.9347 10.9802 23.8252 10.0609 23.8252 8.93112V8.7262C23.8252 3.94355 20.0561 0.0527344 15.4233 0.0527344C10.79 0.0527344 7.02051 3.94355 7.02051 8.7262V30.3453C7.02051 30.7224 7.31684 31.0283 7.68215 31.0283C8.04762 31.0283 8.34379 30.7224 8.34379 30.3453V8.7262C8.34379 4.69691 11.5197 1.41878 15.4233 1.41878C19.3264 1.41878 22.5019 4.69691 22.5019 8.7262V8.93112C22.5019 9.30769 22.2051 9.61409 21.8403 9.61409C21.4754 9.61409 21.1786 9.30769 21.1786 8.93112V8.7262C21.1786 5.45011 18.5967 2.7848 15.4233 2.7848C12.2493 2.7848 9.66707 5.45027 9.66707 8.7262V28.6659C9.66707 29.0431 9.96332 29.3489 10.3288 29.3489C10.6942 29.3489 10.9904 29.0431 10.9904 28.6659V27.6454H25.4132V30.3516C25.4132 30.7288 25.7094 31.0346 26.0748 31.0346C26.4403 31.0346 26.7365 30.7288 26.7365 30.3516V8.7262C26.7365 4.69691 29.9124 1.41878 33.816 1.41878C37.7192 1.41878 40.8946 4.69691 40.8946 8.7262V8.93112C40.8946 9.30769 40.5979 9.61409 40.233 9.61409C39.8682 9.61409 39.5714 9.30769 39.5714 8.93112V8.7262C39.5714 5.45011 36.9895 2.7848 33.816 2.7848C30.642 2.7848 28.0598 5.45027 28.0598 8.7262V11.2183C28.0598 11.5955 28.356 11.9013 28.7214 11.9013C29.0868 11.9013 29.3831 11.5955 29.3831 11.2183V8.7262C29.3831 6.20339 31.3717 4.15089 33.8161 4.15089C36.26 4.15089 38.2482 6.20339 38.2482 8.7262V8.93112C38.2482 10.0609 39.1386 10.9802 40.2331 10.9802C41.3275 10.9802 42.2181 10.0609 42.2181 8.93112V8.7262C42.2179 3.9437 38.4487 0.0527344 33.8159 0.0527344ZM10.9904 16.7177H25.4131V18.2203H10.9904V16.7177ZM25.4132 23.4107H16.2391C15.8736 23.4107 15.5775 23.7166 15.5775 24.0937C15.5775 24.4709 15.8736 24.7767 16.2391 24.7767H25.413V26.2793H10.9904V24.7767H14.0336C14.3991 24.7767 14.6954 24.4709 14.6954 24.0937C14.6954 23.7166 14.3991 23.4107 14.0336 23.4107H10.9903V19.586H25.4132V23.4107Z" fill="#FFA23D"/>
<path d="M28.7222 12.8145C28.3567 12.8145 28.0605 13.1203 28.0605 13.4975V30.5653C28.0605 30.9425 28.3567 31.2483 28.7222 31.2483C29.0877 31.2483 29.3838 30.9425 29.3838 30.5653V13.4975C29.3838 13.1203 29.0875 12.8145 28.7222 12.8145Z" fill="#FFA23D"/>
<path d="M43.8889 30.1035C42.3096 30.1035 41.4964 30.7613 40.7789 31.3417C40.1245 31.8711 39.6077 32.2891 38.4852 32.2891C37.3626 32.2891 36.8456 31.871 36.1914 31.3417C35.4739 30.7614 34.6606 30.1035 33.0814 30.1035C31.5022 30.1035 30.689 30.7614 29.9715 31.3417C29.3171 31.8711 28.8003 32.2891 27.6779 32.2891C26.5554 32.2891 26.0386 31.871 25.3843 31.3417C24.6669 30.7614 23.8537 30.1035 22.2745 30.1035C20.6954 30.1035 19.8823 30.7614 19.1648 31.3417C18.5105 31.8711 17.9938 32.2891 16.8714 32.2891C15.749 32.2891 15.2322 31.871 14.578 31.3417C13.8605 30.7614 13.0474 30.1035 11.4681 30.1035C9.88891 30.1035 9.0757 30.7614 8.35828 31.3417C7.70391 31.8711 7.18727 32.2891 6.06477 32.2891C4.94234 32.2891 4.42555 31.871 3.7713 31.3417C3.05388 30.7614 2.24084 30.1035 0.661648 30.1035C0.296187 30.1035 0 30.4094 0 30.7866C0 31.1638 0.296187 31.4695 0.661648 31.4695C1.78402 31.4695 2.30079 31.8877 2.95504 32.417C3.67246 32.9973 4.48551 33.6552 6.06477 33.6552C7.64391 33.6552 8.45711 32.9973 9.17453 32.417C9.82891 31.8876 10.3456 31.4695 11.4681 31.4695C12.5905 31.4695 13.1074 31.8877 13.7616 32.417C14.4791 32.9973 15.2923 33.6552 16.8714 33.6552C18.4505 33.6552 19.2637 32.9973 19.9811 32.417C20.6354 31.8876 21.1521 31.4695 22.2745 31.4695C23.397 31.4695 23.9138 31.8877 24.568 32.417C25.2855 32.9973 26.0986 33.6552 27.6779 33.6552C29.2571 33.6552 30.0702 32.9973 30.7877 32.417C31.442 31.8876 31.9588 31.4695 33.0814 31.4695C34.2039 31.4695 34.7209 31.8877 35.3751 32.417C36.0927 32.9973 36.9059 33.6552 38.4852 33.6552C40.0644 33.6552 40.8777 32.9973 41.5952 32.417C42.2495 31.8876 42.7663 31.4695 43.8889 31.4695C44.2543 31.4695 44.5505 31.1638 44.5505 30.7866C44.5505 30.4093 44.2543 30.1035 43.8889 30.1035Z" fill="#FFA23D"/>
<path d="M43.89 35.209C42.3107 35.209 41.4975 35.8667 40.78 36.4472C40.1257 36.9765 39.6088 37.3945 38.4863 37.3945C37.3637 37.3945 36.8468 36.9764 36.1925 36.4472C35.475 35.8668 34.6618 35.209 33.0825 35.209C31.5033 35.209 30.6901 35.8668 29.9726 36.4472C29.3182 36.9765 28.8015 37.3945 27.679 37.3945C26.5565 37.3945 26.0397 36.9764 25.3854 36.4472C24.668 35.8668 23.8548 35.209 22.2756 35.209C20.6965 35.209 19.8834 35.8668 19.166 36.4472C18.5116 36.9765 17.995 37.3945 16.8725 37.3945C15.7501 37.3945 15.2333 36.9764 14.5791 36.4472C13.8617 35.8668 13.0486 35.209 11.4693 35.209C11.1038 35.209 10.8076 35.5148 10.8076 35.892C10.8076 36.2691 11.1038 36.575 11.4693 36.575C12.5917 36.575 13.1086 36.993 13.7629 37.5223C14.4803 38.1026 15.2935 38.7605 16.8725 38.7605C18.4517 38.7605 19.2648 38.1026 19.9822 37.5223C20.6366 36.9929 21.1532 36.575 22.2756 36.575C23.3981 36.575 23.915 36.993 24.5692 37.5223C25.2866 38.1026 26.0997 38.7605 27.679 38.7605C29.2582 38.7605 30.0714 38.1027 30.7889 37.5223C31.4432 36.9929 31.96 36.575 33.0825 36.575C34.205 36.575 34.722 36.993 35.3763 37.5223C36.0938 38.1026 36.907 38.7605 38.4863 38.7605C40.0656 38.7605 40.8788 38.1027 41.5963 37.5223C42.2506 36.9929 42.7675 36.575 43.89 36.575C44.2555 36.575 44.5517 36.2691 44.5517 35.892C44.5517 35.5148 44.2555 35.209 43.89 35.209Z" fill="#FFA23D"/>
<path d="M9.28695 36.5636C9.06172 36.2668 8.64594 36.2146 8.35812 36.4473C7.70383 36.9766 7.18719 37.3946 6.06477 37.3946C4.94234 37.3946 4.42555 36.9764 3.7713 36.4472C3.05388 35.8668 2.24084 35.209 0.661648 35.209C0.296187 35.209 0 35.5148 0 35.892C0 36.2691 0.296187 36.575 0.661648 36.575C1.78402 36.575 2.30079 36.993 2.95504 37.5223C3.67246 38.1026 4.48551 38.7605 6.06477 38.7605C7.64391 38.7605 8.45703 38.1028 9.17445 37.5224C9.46203 37.2898 9.5125 36.8606 9.28695 36.5636Z" fill="#FFA23D"/>
</svg>
